<svg width="242" height="62" version="1.1" xmlns="http://www.w3.org/2000/svg" desc="Created with imagetracer.js version 1.2.6" ><path fill="rgb(0,0,0)" stroke="rgb(0,0,0)" stroke-width="1" opacity="0" d="M 0 0 L 78 0.5 L 69 11.5 L 69 13.5 L 74 20.5 L 63 34.5 L 73 48.5 L 64.5 59 L 62 60.5 Q 62.5 63.5 55.5 62 L 55.5 61 L 62 56.5 Q 65.1 52.1 64 43.5 Q 63.1 36.9 58.5 34 Q 54.2 30.3 44.5 32 L 39 35 L 36 40.5 L 36 53.5 L 39.5 59 L 44 61.5 L 22.5 62 L 22.5 61 Q 30.4 61.9 32 56.5 Q 34.3 53.3 33 46.5 Q 30.7 42.4 26 42 Q 24.9 39.3 27.5 40 Q 33 38 31 28.5 L 30 26 L 22.5 23 L 0 23 L 0 0 Z " /><path fill="rgb(0,0,0)" stroke="rgb(0,0,0)" stroke-width="1" opacity="0" d="M 79 0 L 242 0 L 242 57 L 238 56 L 238.5 54 L 241 55.5 L 241 53 L 236 53 L 236 61.5 L 234.5 62 L 235 60.5 L 234.5 59 L 231 60 L 230 57.5 L 235 57 Q 237.3 50.6 229.5 53 Q 226.6 54.6 227.5 60 L 227 53 L 218.5 53 L 218 54.5 L 219 60 Q 215 61.4 217 54.5 Q 216 52 211.5 53 L 210 56 Q 213.7 57.5 213 54.5 L 214 54.5 Q 215.3 58.3 211.5 57 L 209.5 60 Q 210.4 54.6 207.5 53 Q 202 51.5 200.5 54 Q 199.3 51.8 194.5 53 Q 191.6 54.6 192.5 60 L 192 53 Q 188.2 51.5 189 54.5 L 190 59.5 L 189 59.5 Q 190.1 56.2 187.5 57 L 185 56 L 185.5 54 L 188 55.5 Q 189.3 50.9 183.5 53 L 182 56.5 L 182 58.5 L 181.5 60 L 181 53 Q 177.3 51.5 178 54.5 L 179 59.5 L 178 62 L 174 61.5 L 178 50 L 174 50 L 174 51.5 L 175 53.5 L 173.5 57 Q 171.1 54.7 172 50 L 168 50 L 168 51.5 L 172 62 L 151.5 62 L 151 60.5 L 147 59 L 147 37.5 L 143.5 33 L 134.5 32 L 130 34 Q 131.3 30.7 126.5 32 L 119 34 Q 117.9 36.7 120.5 36 L 123 37 L 123 58.5 L 120.5 59 L 119 62 L 111 61.5 L 116 59 L 119 53.5 L 119 40.5 L 112.5 33 Q 108.7 30.3 100.5 32 L 93 37.5 Q 89.7 42.2 91 51.5 Q 92.3 57.3 96.5 60 L 100 61.5 L 95 62 L 93.5 59 Q 89.5 59.5 89 56.5 L 82 46.5 L 91 33.5 L 81 19.5 L 87 11.5 L 79 0 Z M 205 33 L 206 36 L 201 37 L 201 44 L 200 38 L 199 36 L 192 36 L 193 39 Q 195 45 191 44 L 191 38 L 190 36 L 186 37 L 178 36 L 179 40 Q 180 44 177 45 L 182 45 L 181 44 L 182 38 L 186 41 L 184 41 L 185 45 L 209 45 L 208 44 L 208 34 L 205 33 Z M 169 34 L 170 35 L 170 44 L 169 44 L 169 45 Q 175 47 177 44 L 176 39 L 177 36 Q 175 32 169 34 Z M 179 49 Q 178 53 181 52 Q 182 48 179 49 Z M 191 49 L 189 51 Q 188 54 192 52 Q 193 48 191 49 Z M 225 49 L 225 52 L 228 51 L 225 49 Z " /><path fill="rgb(0,0,0)" stroke="rgb(0,0,0)" stroke-width="1" opacity="0" d="M 77.5 7 L 82 13.5 L 78.5 17 L 77 15.5 L 74 10.5 L 77.5 7 Z " /><path fill="rgb(0,0,0)" stroke="rgb(0,0,0)" stroke-width="1" opacity="0" d="M 75.5 24 L 79 26.5 L 85 34.5 L 85 36.5 L 79.5 44 L 70 30.5 L 75.5 24 Z " /><path fill="rgb(0,0,0)" stroke="rgb(0,0,0)" stroke-width="1" opacity="0" d="M 0 25 L 4 26.5 L 4 58.5 L 2.5 59 L 0 60 L 0 25 Z " /><path fill="rgb(0,0,0)" stroke="rgb(0,0,0)" stroke-width="1" opacity="0" d="M 12 26 Q 20 24.3 23 28.5 L 24 35.5 Q 21 41.1 12 40 L 12 26 Z " /><path fill="rgb(0,0,0)" stroke="rgb(0,0,0)" stroke-width="1" opacity="0" d="M 47.5 35 Q 52.8 33.8 54 36.5 L 56 40.5 L 56 53.5 L 52.5 59 Q 45.3 60.3 44 55.5 Q 41.7 50.8 43 42.5 L 44 38.5 L 47.5 35 Z " /><path fill="rgb(0,0,0)" stroke="rgb(0,0,0)" stroke-width="1" opacity="0" d="M 102.5 35 Q 109.8 33.8 111 38.5 L 112 51.5 L 111 55.5 L 107.5 59 Q 101.3 60.3 100 56.5 Q 97.4 50.6 99 40.5 L 102.5 35 Z " /><path fill="rgb(0,0,0)" stroke="rgb(0,0,0)" stroke-width="1" opacity="0" d="M 172 35 Q 175.3 33.9 174 38 Q 170.7 39.1 172 35 Z " /><path fill="rgb(0,0,0)" stroke="rgb(0,0,0)" stroke-width="1" opacity="0" d="M 134.5 36 L 140 39.5 L 140 58.5 L 138.5 59 L 137 62 L 133 62 L 133 60.5 L 130 59 L 130 38.5 L 131.5 37 L 134.5 36 Z " /><path fill="rgb(0,0,0)" stroke="rgb(0,0,0)" stroke-width="1" opacity="0" d="M 196.5 38 L 198 42.5 L 195 44 Q 193.8 39.4 196.5 38 Z " /><path fill="rgb(0,0,0)" stroke="rgb(0,0,0)" stroke-width="1" opacity="0" d="M 204.5 38 L 206 38 L 206 43 Q 201.5 44.8 203 39.5 L 204.5 38 Z " /><path fill="rgb(0,0,0)" stroke="rgb(0,0,0)" stroke-width="1" opacity="0" d="M 172 40 L 175 41.5 L 173.5 44 L 172 44 L 172 40 Z " /><path fill="rgb(0,0,0)" stroke="rgb(0,0,0)" stroke-width="1" opacity="0" d="M 12 43 Q 21.7 41 25 46.5 L 26 52.5 L 24 57 Q 20.2 60.1 12 59 L 12 43 Z " /><path fill="rgb(0,0,0)" stroke="rgb(0,0,0)" stroke-width="1" opacity="0" d="M 75.5 51 L 82 59.5 L 80 60 L 79.5 62 L 73 62 Q 74.1 59.3 71.5 60 L 69 58.5 L 75.5 51 Z " /><path fill="rgb(0,0,0)" stroke="rgb(0,0,0)" stroke-width="1" opacity="0" d="M 196 54 L 198 54 L 198 60 L 195 58.5 L 196 54 Z " /><path fill="rgb(0,0,0)" stroke="rgb(0,0,0)" stroke-width="1" opacity="0" d="M 231.5 54 L 232.5 56 Q 229.7 56.7 231.5 54 Z " /><path fill="rgb(0,0,0)" stroke="rgb(0,0,0)" stroke-width="1" opacity="0" d="M 201.5 55 L 202 59.5 L 201 62 L 199 61.5 Q 202.1 60 201.5 55 Z " /><path fill="rgb(0,0,0)" stroke="rgb(0,0,0)" stroke-width="1" opacity="0" d="M 204 55 Q 208.9 53.2 207 59.5 L 205.5 62 Q 203.1 59.7 204 55 Z " /><path fill="rgb(0,0,0)" stroke="rgb(0,0,0)" stroke-width="1" opacity="0" d="M 221.5 55 L 223.5 56 L 225 55.5 L 224 62 Q 221.3 63.1 222 60.5 Q 219.6 59.1 221.5 55 Z " /><path fill="rgb(0,0,0)" stroke="rgb(0,0,0)" stroke-width="1" opacity="0" d="M 184.5 58 L 185.5 60 Q 182.7 60.7 184.5 58 Z " /><path fill="rgb(0,0,0)" stroke="rgb(0,0,0)" stroke-width="1" opacity="0" d="M 213.5 58 L 214 60 L 212 59.5 L 213.5 58 Z " /><path fill="rgb(0,0,0)" stroke="rgb(0,0,0)" stroke-width="1" opacity="0" d="M 237.5 58 L 240 59.5 L 238.5 60 L 237.5 58 Z " /><path fill="rgb(235,20,77)" stroke="rgb(235,20,77)" stroke-width="1" opacity="0.4666666666666667" d="M 78.5 0 L 75.5 4 L 78.5 0 Z " /><path fill="rgb(235,20,77)" stroke="rgb(235,20,77)" stroke-width="1" opacity="0.4666666666666667" d="M 79.5 2 L 81.5 5 L 79.5 2 Z " /><path fill="rgb(235,20,77)" stroke="rgb(235,20,77)" stroke-width="1" opacity="0.4666666666666667" d="M 74.5 5 L 72.5 8 L 74.5 5 Z " /><path fill="rgb(235,20,77)" stroke="rgb(235,20,77)" stroke-width="1" opacity="0.4666666666666667" d="M 76 6 L 79 7.5 L 77.5 7 L 73 10.5 L 76 6 Z " /><path fill="rgb(235,20,77)" stroke="rgb(235,20,77)" stroke-width="1" opacity="0.4666666666666667" d="M 82.5 6 L 84.5 9 L 82.5 6 Z " /><path fill="rgb(235,20,77)" stroke="rgb(235,20,77)" stroke-width="1" opacity="0.4666666666666667" d="M 71.5 9 L 69.5 12 L 71.5 9 Z " /><path fill="rgb(235,20,77)" stroke="rgb(235,20,77)" stroke-width="1" opacity="0.4666666666666667" d="M 79.5 9 L 81.5 12 L 79.5 9 Z " /><path fill="rgb(235,20,77)" stroke="rgb(235,20,77)" stroke-width="1" opacity="0.4666666666666667" d="M 85.5 10 L 87 12.5 L 81.5 19 L 83 16.5 L 86 11.5 L 85.5 10 Z " /><path fill="rgb(235,20,77)" stroke="rgb(235,20,77)" stroke-width="1" opacity="0.4666666666666667" d="M 74.5 12 L 76.5 15 L 74.5 12 Z " /><path fill="rgb(235,20,77)" stroke="rgb(235,20,77)" stroke-width="1" opacity="0.4666666666666667" d="M 69.5 13 L 74 18.5 L 70 15.5 L 69.5 13 Z " /><path fill="rgb(235,20,77)" stroke="rgb(235,20,77)" stroke-width="1" opacity="0.4666666666666667" d="M 81.5 14 L 78.5 18 L 77.5 16 L 78.5 17 L 81.5 14 Z " /><path fill="rgb(235,20,77)" stroke="rgb(235,20,77)" stroke-width="1" opacity="0.4666666666666667" d="M 80.5 20 L 82.5 23 L 80.5 20 Z " /><path fill="rgb(235,20,77)" stroke="rgb(235,20,77)" stroke-width="1" opacity="0.4666666666666667" d="M 73.5 21 L 71.5 24 L 73.5 21 Z " /><path fill="rgb(235,20,77)" stroke="rgb(235,20,77)" stroke-width="1" opacity="0.4666666666666667" d="M 75.5 22 L 78.5 26 L 75.5 24 L 70 31.5 L 79.5 44 L 81 43.5 Q 79.5 46.5 78 43.5 L 69 30.5 L 75.5 22 Z " /><path fill="rgb(235,20,77)" stroke="rgb(235,20,77)" stroke-width="1" opacity="0.4666666666666667" d="M 0.5 23 L 1.5 25 Q -1.3 25.7 0.5 23 Z " /><path fill="rgb(235,20,77)" stroke="rgb(235,20,77)" stroke-width="1" opacity="0.4666666666666667" d="M 19.5 23 L 23 23.5 L 19.5 24 L 19.5 23 Z " /><path fill="rgb(235,20,77)" stroke="rgb(235,20,77)" stroke-width="1" opacity="0.4666666666666667" d="M 25.5 24 L 30 26 L 31 29.5 L 30 29.5 L 26.5 25 L 25.5 24 Z " /><path fill="rgb(235,20,77)" stroke="rgb(235,20,77)" stroke-width="1" opacity="0.4666666666666667" d="M 83.5 24 L 85.5 27 L 83.5 24 Z " /><path fill="rgb(235,20,77)" stroke="rgb(235,20,77)" stroke-width="1" opacity="0.4666666666666667" d="M 3.5 25 L 5 26.5 L 5 58.5 L 2.5 60 L 2.5 59 L 4 58.5 L 4 26.5 L 3.5 25 Z " /><path fill="rgb(235,20,77)" stroke="rgb(235,20,77)" stroke-width="1" opacity="0.4666666666666667" d="M 11 25 L 18 25.5 L 12 26 L 11.5 40 L 11 25 Z " /><path fill="rgb(235,20,77)" stroke="rgb(235,20,77)" stroke-width="1" opacity="0.4666666666666667" d="M 70.5 25 L 68.5 28 L 70.5 25 Z " /><path fill="rgb(235,20,77)" stroke="rgb(235,20,77)" stroke-width="1" opacity="0.4666666666666667" d="M 79.5 27 L 81.5 30 L 79.5 27 Z " /><path fill="rgb(235,20,77)" stroke="rgb(235,20,77)" stroke-width="1" opacity="0.4666666666666667" d="M 86.5 28 L 88.5 31 L 86.5 28 Z " /><path fill="rgb(235,20,77)" stroke="rgb(235,20,77)" stroke-width="1" opacity="0.4666666666666667" d="M 67.5 29 L 65.5 32 L 67.5 29 Z " /><path fill="rgb(235,20,77)" stroke="rgb(235,20,77)" stroke-width="1" opacity="0.4666666666666667" d="M 24.5 31 L 25 34.5 L 24 34.5 L 24.5 31 Z " /><path fill="rgb(235,20,77)" stroke="rgb(235,20,77)" stroke-width="1" opacity="0.4666666666666667" d="M 82.5 31 L 84.5 34 L 82.5 31 Z " /><path fill="rgb(235,20,77)" stroke="rgb(235,20,77)" stroke-width="1" opacity="0.4666666666666667" d="M 44.5 32 L 47 32.5 L 39.5 36 L 39.5 35 L 44.5 32 Z " /><path fill="rgb(235,20,77)" stroke="rgb(235,20,77)" stroke-width="1" opacity="0.4666666666666667" d="M 52.5 32 L 55 32.5 L 52.5 33 L 52.5 32 Z " /><path fill="rgb(235,20,77)" stroke="rgb(235,20,77)" stroke-width="1" opacity="0.4666666666666667" d="M 89.5 32 L 91 34.5 L 85.5 41 L 87 38.5 L 90 33.5 L 89.5 32 Z " /><path fill="rgb(235,20,77)" stroke="rgb(235,20,77)" stroke-width="1" opacity="0.4666666666666667" d="M 100.5 32 L 103 32.5 L 100.5 33 L 100.5 32 Z " /><path fill="rgb(235,20,77)" stroke="rgb(235,20,77)" stroke-width="1" opacity="0.4666666666666667" d="M 108.5 32 Q 115.7 32.9 118 38.5 L 119 42.5 L 118 42.5 Q 117.4 36.2 112.5 34 L 108.5 33 L 108.5 32 Z " /><path fill="rgb(235,20,77)" stroke="rgb(235,20,77)" stroke-width="1" opacity="0.4666666666666667" d="M 129.5 32 L 131 34.5 L 129 35.5 L 129.5 32 Z " /><path fill="rgb(235,20,77)" stroke="rgb(235,20,77)" stroke-width="1" opacity="0.4666666666666667" d="M 139.5 32 Q 144.3 32.3 146 35.5 L 143.5 34 L 139.5 33 L 139.5 32 Z " /><path fill="rgb(235,20,77)" stroke="rgb(235,20,77)" stroke-width="1" opacity="0.4666666666666667" d="M 64.5 33 L 64.5 36 Q 61.5 34.5 64.5 33 Z " /><path fill="rgb(235,20,77)" stroke="rgb(235,20,77)" stroke-width="1" opacity="0.4666666666666667" d="M 47.5 34 L 52 34.5 Q 46.1 34.1 44.5 38 L 47.5 34 Z " /><path fill="rgb(235,20,77)" stroke="rgb(235,20,77)" stroke-width="1" opacity="0.4666666666666667" d="M 58.5 34 L 63 40.5 L 62 40.5 L 58.5 34 Z " /><path fill="rgb(235,20,77)" stroke="rgb(235,20,77)" stroke-width="1" opacity="0.4666666666666667" d="M 96.5 34 L 94 37.5 L 92.5 41 L 92 39.5 L 96.5 34 Z " /><path fill="rgb(235,20,77)" stroke="rgb(235,20,77)" stroke-width="1" opacity="0.4666666666666667" d="M 103.5 34 Q 110 33 111 37.5 L 107.5 35 Q 102.5 36 103.5 34 Z " /><path fill="rgb(235,20,77)" stroke="rgb(235,20,77)" stroke-width="1" opacity="0.4666666666666667" d="M 30.5 35 L 31 36.5 L 27 39.5 L 30.5 35 Z " /><path fill="rgb(235,20,77)" stroke="rgb(235,20,77)" stroke-width="1" opacity="0.4666666666666667" d="M 53.5 35 L 56 39.5 L 55 39.5 L 53.5 35 Z " /><path fill="rgb(235,20,77)" stroke="rgb(235,20,77)" stroke-width="1" opacity="0.4666666666666667" d="M 85.5 35 L 86 36.5 L 84 37.5 L 85.5 35 Z " /><path fill="rgb(235,20,77)" stroke="rgb(235,20,77)" stroke-width="1" opacity="0.4666666666666667" d="M 101.5 35 L 100.5 37 L 101.5 35 Z " /><path fill="rgb(235,20,77)" stroke="rgb(235,20,77)" stroke-width="1" opacity="0.4666666666666667" d="M 23.5 36 L 21.5 39 L 23.5 36 Z " /><path fill="rgb(235,20,77)" stroke="rgb(235,20,77)" stroke-width="1" opacity="0.4666666666666667" d="M 136.5 36 L 141 39.5 L 141 58.5 L 139.5 60 L 138 60.5 L 149.5 61 L 149.5 60 L 147 59.5 L 149.5 59 L 151 62 L 137.5 62 L 137 60.5 L 140 59 L 140 39.5 L 137.5 37 L 136.5 36 Z " /><path fill="rgb(235,20,77)" stroke="rgb(235,20,77)" stroke-width="1" opacity="0.4666666666666667" d="M 38.5 37 L 37.5 39 L 38.5 37 Z " /><path fill="rgb(235,20,77)" stroke="rgb(235,20,77)" stroke-width="1" opacity="0.4666666666666667" d="M 65.5 37 L 74 47.5 L 71 45.5 L 65.5 37 Z " /><path fill="rgb(235,20,77)" stroke="rgb(235,20,77)" stroke-width="1" opacity="0.4666666666666667" d="M 130.5 37 L 130 38.5 L 130 58.5 L 131.5 59 L 133 62 L 119.5 62 L 119 60.5 L 122.5 59 L 122.5 60 L 120 60.5 L 131.5 61 L 131.5 60 L 129 58.5 L 129 38.5 L 130.5 37 Z " /><path fill="rgb(235,20,77)" stroke="rgb(235,20,77)" stroke-width="1" opacity="0.4666666666666667" d="M 43.5 39 L 44 41.5 L 43 41.5 L 43.5 39 Z " /><path fill="rgb(235,20,77)" stroke="rgb(235,20,77)" stroke-width="1" opacity="0.4666666666666667" d="M 83.5 39 L 81.5 42 L 83.5 39 Z " /><path fill="rgb(235,20,77)" stroke="rgb(235,20,77)" stroke-width="1" opacity="0.4666666666666667" d="M 111.5 39 L 112 41.5 L 111 41.5 L 111.5 39 Z " /><path fill="rgb(235,20,77)" stroke="rgb(235,20,77)" stroke-width="1" opacity="0.4666666666666667" d="M 24.5 40 L 27.5 42 L 27.5 43 L 23 41.5 L 24.5 40 Z " /><path fill="rgb(235,20,77)" stroke="rgb(235,20,77)" stroke-width="1" opacity="0.4666666666666667" d="M 36.5 40 L 37 42.5 L 36 42.5 L 36.5 40 Z " /><path fill="rgb(235,20,77)" stroke="rgb(235,20,77)" stroke-width="1" opacity="0.4666666666666667" d="M 98.5 41 L 99 52.5 L 98 52.5 L 98.5 41 Z " /><path fill="rgb(235,20,77)" stroke="rgb(235,20,77)" stroke-width="1" opacity="0.4666666666666667" d="M 11 42 L 19 42.5 L 12 43 L 11.5 59 L 11 42 Z " /><path fill="rgb(235,20,77)" stroke="rgb(235,20,77)" stroke-width="1" opacity="0.4666666666666667" d="M 56.5 42 L 57 52.5 L 56 52.5 L 56.5 42 Z " /><path fill="rgb(235,20,77)" stroke="rgb(235,20,77)" stroke-width="1" opacity="0.4666666666666667" d="M 84.5 42 L 83 44.5 L 82 46.5 L 91.5 59 L 95 60.5 L 94.5 62 L 80 62 L 80.5 60 L 81.5 61 L 93.5 61 L 93.5 60 Q 88.5 60.5 88 56.5 L 81 46.5 L 84.5 42 Z " /><path fill="rgb(235,20,77)" stroke="rgb(235,20,77)" stroke-width="1" opacity="0.4666666666666667" d="M 91.5 42 L 92 51.5 L 91 51.5 L 91.5 42 Z " /><path fill="rgb(235,20,77)" stroke="rgb(235,20,77)" stroke-width="1" opacity="0.4666666666666667" d="M 21.5 43 L 25 45.5 L 22.5 44 L 21.5 43 Z " /><path fill="rgb(235,20,77)" stroke="rgb(235,20,77)" stroke-width="1" opacity="0.4666666666666667" d="M 29.5 43 L 33 47.5 L 32 47.5 L 29.5 43 Z " /><path fill="rgb(235,20,77)" stroke="rgb(235,20,77)" stroke-width="1" opacity="0.4666666666666667" d="M 63.5 43 L 64 51.5 L 63 51.5 L 63.5 43 Z " /><path fill="rgb(235,20,77)" stroke="rgb(235,20,77)" stroke-width="1" opacity="0.4666666666666667" d="M 72.5 49 L 70.5 52 L 72.5 49 Z " /><path fill="rgb(235,20,77)" stroke="rgb(235,20,77)" stroke-width="1" opacity="0.4666666666666667" d="M 74 50 L 79 53.5 L 83 59.5 L 81 58.5 L 75.5 51 L 69 58.5 L 71 59.5 L 69.5 60 L 68 58.5 L 71 55.5 L 74 50 Z " /><path fill="rgb(235,20,77)" stroke="rgb(235,20,77)" stroke-width="1" opacity="0.4666666666666667" d="M 36.5 51 L 37 53.5 L 36 53.5 L 36.5 51 Z " /><path fill="rgb(235,20,77)" stroke="rgb(235,20,77)" stroke-width="1" opacity="0.4666666666666667" d="M 118.5 51 L 119 53.5 L 118 53.5 L 118.5 51 Z " /><path fill="rgb(235,20,77)" stroke="rgb(235,20,77)" stroke-width="1" opacity="0.4666666666666667" d="M 111.5 52 L 112 54.5 L 111 54.5 L 111.5 52 Z " /><path fill="rgb(235,20,77)" stroke="rgb(235,20,77)" stroke-width="1" opacity="0.4666666666666667" d="M 25.5 53 L 26 54.5 L 23.5 58 L 20.5 59 L 20.5 58 L 24 57 L 25.5 53 Z " /><path fill="rgb(235,20,77)" stroke="rgb(235,20,77)" stroke-width="1" opacity="0.4666666666666667" d="M 62.5 53 L 63 54.5 L 58.5 60 L 61 56.5 L 62.5 53 Z " /><path fill="rgb(235,20,77)" stroke="rgb(235,20,77)" stroke-width="1" opacity="0.4666666666666667" d="M 69.5 53 L 67.5 56 L 69.5 53 Z " /><path fill="rgb(235,20,77)" stroke="rgb(235,20,77)" stroke-width="1" opacity="0.4666666666666667" d="M 92.5 53 L 97 59.5 L 93 56.5 L 92.5 53 Z " /><path fill="rgb(235,20,77)" stroke="rgb(235,20,77)" stroke-width="1" opacity="0.4666666666666667" d="M 37.5 55 L 40 58.5 L 38 57.5 L 37.5 55 Z " /><path fill="rgb(235,20,77)" stroke="rgb(235,20,77)" stroke-width="1" opacity="0.4666666666666667" d="M 117.5 55 L 116.5 57 L 117.5 55 Z " /><path fill="rgb(235,20,77)" stroke="rgb(235,20,77)" stroke-width="1" opacity="0.4666666666666667" d="M 31.5 56 L 28.5 60 L 24.5 61 L 24.5 60 Q 29.7 59.7 31.5 56 Z " /><path fill="rgb(235,20,77)" stroke="rgb(235,20,77)" stroke-width="1" opacity="0.4666666666666667" d="M 44.5 56 Q 46 59.9 52 59.5 L 47.5 60 L 44.5 56 Z " /><path fill="rgb(235,20,77)" stroke="rgb(235,20,77)" stroke-width="1" opacity="0.4666666666666667" d="M 110.5 56 L 107.5 60 L 103 59.5 Q 109 60 110.5 56 Z " /><path fill="rgb(235,20,77)" stroke="rgb(235,20,77)" stroke-width="1" opacity="0.4666666666666667" d="M 54.5 57 L 53.5 59 L 54.5 57 Z " /><path fill="rgb(235,20,77)" stroke="rgb(235,20,77)" stroke-width="1" opacity="0.4666666666666667" d="M 66.5 57 L 64.5 60 L 63 60.5 L 71.5 61 L 73 60.5 L 72.5 62 L 62 62 L 63.5 59 L 66.5 57 Z " /><path fill="rgb(235,20,77)" stroke="rgb(235,20,77)" stroke-width="1" opacity="0.4666666666666667" d="M 100.5 57 L 101.5 59 L 100.5 57 Z " /><path fill="rgb(235,20,77)" stroke="rgb(235,20,77)" stroke-width="1" opacity="0.4666666666666667" d="M 41.5 59 L 42.5 61 L 41.5 59 Z " /><path fill="rgb(235,20,77)" stroke="rgb(235,20,77)" stroke-width="1" opacity="0.4666666666666667" d="M 113.5 59 L 112.5 61 L 113.5 59 Z " /><path fill="rgb(235,20,77)" stroke="rgb(235,20,77)" stroke-width="1" opacity="0.4666666666666667" d="M 0.5 60 L 1.5 61 L 11 61.5 L 0 62 L 0.5 60 Z " /><path fill="rgb(235,20,77)" stroke="rgb(235,20,77)" stroke-width="1" opacity="0.4666666666666667" d="M 14.5 61 L 22 61.5 L 14.5 62 L 14.5 61 Z " /><path fill="rgb(235,20,77)" stroke="rgb(235,20,77)" stroke-width="1" opacity="0.4666666666666667" d="M 44.5 61 L 47 61.5 L 44.5 62 L 44.5 61 Z " /><path fill="rgb(235,20,77)" stroke="rgb(235,20,77)" stroke-width="1" opacity="0.4666666666666667" d="M 108.5 61 L 111 61.5 L 108.5 62 L 108.5 61 Z " /><path fill="rgb(235,21,77)" stroke="rgb(235,21,77)" stroke-width="1" opacity="0.996078431372549" d="M 76.5 3 L 75.5 5 L 76.5 3 Z " /><path fill="rgb(235,21,77)" stroke="rgb(235,21,77)" stroke-width="1" opacity="0.996078431372549" d="M 80.5 4 L 81.5 6 L 80.5 4 Z " /><path fill="rgb(235,21,77)" stroke="rgb(235,21,77)" stroke-width="1" opacity="0.996078431372549" d="M 73.5 7 L 76 7.5 L 74.5 9 L 72 8.5 L 73.5 7 Z " /><path fill="rgb(235,21,77)" stroke="rgb(235,21,77)" stroke-width="1" opacity="0.996078431372549" d="M 79.5 8 L 80.5 10 L 79.5 8 Z " /><path fill="rgb(235,21,77)" stroke="rgb(235,21,77)" stroke-width="1" opacity="0.996078431372549" d="M 83.5 8 L 84.5 10 L 83.5 8 Z " /><path fill="rgb(235,21,77)" stroke="rgb(235,21,77)" stroke-width="1" opacity="0.996078431372549" d="M 70.5 11 L 69.5 13 L 70.5 11 Z " /><path fill="rgb(235,21,77)" stroke="rgb(235,21,77)" stroke-width="1" opacity="0.996078431372549" d="M 75.5 14 L 76.5 16 L 75.5 14 Z " /><path fill="rgb(235,21,77)" stroke="rgb(235,21,77)" stroke-width="1" opacity="0.996078431372549" d="M 71.5 15 L 72.5 17 L 71.5 15 Z " /><path fill="rgb(235,21,77)" stroke="rgb(235,21,77)" stroke-width="1" opacity="0.996078431372549" d="M 80.5 16 L 79.5 18 L 80.5 16 Z " /><path fill="rgb(235,21,77)" stroke="rgb(235,21,77)" stroke-width="1" opacity="0.996078431372549" d="M 76.5 22 L 77.5 24 L 76.5 22 Z " /><path fill="rgb(235,21,77)" stroke="rgb(235,21,77)" stroke-width="1" opacity="0.996078431372549" d="M 81.5 22 L 82.5 24 L 81.5 22 Z " /><path fill="rgb(235,21,77)" stroke="rgb(235,21,77)" stroke-width="1" opacity="0.996078431372549" d="M 1.5 23 L 19 23.5 L 3.5 24 L 2.5 25 L 1.5 23 Z " /><path fill="rgb(235,21,77)" stroke="rgb(235,21,77)" stroke-width="1" opacity="0.996078431372549" d="M 72.5 23 L 75 23.5 L 73.5 25 L 71 24.5 L 72.5 23 Z " /><path fill="rgb(235,21,77)" stroke="rgb(235,21,77)" stroke-width="1" opacity="0.996078431372549" d="M 79.5 26 L 80.5 28 L 79.5 26 Z " /><path fill="rgb(235,21,77)" stroke="rgb(235,21,77)" stroke-width="1" opacity="0.996078431372549" d="M 84.5 26 L 85.5 28 L 84.5 26 Z " /><path fill="rgb(235,21,77)" stroke="rgb(235,21,77)" stroke-width="1" opacity="0.996078431372549" d="M 69.5 27 L 72 27.5 L 70.5 29 L 68 28.5 L 69.5 27 Z " /><path fill="rgb(235,21,77)" stroke="rgb(235,21,77)" stroke-width="1" opacity="0.996078431372549" d="M 82.5 30 L 83.5 32 L 82.5 30 Z " /><path fill="rgb(235,21,77)" stroke="rgb(235,21,77)" stroke-width="1" opacity="0.996078431372549" d="M 87.5 30 L 88.5 32 L 87.5 30 Z " /><path fill="rgb(235,21,77)" stroke="rgb(235,21,77)" stroke-width="1" opacity="0.996078431372549" d="M 66.5 31 L 65.5 33 L 66.5 31 Z " /><path fill="rgb(235,21,77)" stroke="rgb(235,21,77)" stroke-width="1" opacity="0.996078431372549" d="M 47.5 32 L 52 32.5 L 47.5 33 L 47.5 32 Z " /><path fill="rgb(235,21,77)" stroke="rgb(235,21,77)" stroke-width="1" opacity="0.996078431372549" d="M 103.5 32 L 108 32.5 L 103.5 33 L 103.5 32 Z " /><path fill="rgb(235,21,77)" stroke="rgb(235,21,77)" stroke-width="1" opacity="0.996078431372549" d="M 136.5 32 L 139 32.5 L 136.5 33 L 136.5 32 Z " /><path fill="rgb(235,21,77)" stroke="rgb(235,21,77)" stroke-width="1" opacity="0.996078431372549" d="M 46.5 34 L 44.5 37 L 46.5 34 Z " /><path fill="rgb(235,21,77)" stroke="rgb(235,21,77)" stroke-width="1" opacity="0.996078431372549" d="M 57.5 34 L 60.5 38 L 57.5 34 Z " /><path fill="rgb(235,21,77)" stroke="rgb(235,21,77)" stroke-width="1" opacity="0.996078431372549" d="M 85.5 34 L 86.5 36 L 85.5 34 Z " /><path fill="rgb(235,21,77)" stroke="rgb(235,21,77)" stroke-width="1" opacity="0.996078431372549" d="M 97.5 34 L 94.5 38 L 97.5 34 Z " /><path fill="rgb(235,21,77)" stroke="rgb(235,21,77)" stroke-width="1" opacity="0.996078431372549" d="M 131.5 34 L 131.5 37 Q 128.5 35.5 131.5 34 Z " /><path fill="rgb(235,21,77)" stroke="rgb(235,21,77)" stroke-width="1" opacity="0.996078431372549" d="M 143.5 34 L 145.5 37 L 143.5 34 Z " /><path fill="rgb(235,21,77)" stroke="rgb(235,21,77)" stroke-width="1" opacity="0.996078431372549" d="M 109.5 35 L 110.5 37 L 109.5 35 Z " /><path fill="rgb(235,21,77)" stroke="rgb(235,21,77)" stroke-width="1" opacity="0.996078431372549" d="M 65.5 36 L 66.5 38 L 65.5 36 Z " /><path fill="rgb(235,21,77)" stroke="rgb(235,21,77)" stroke-width="1" opacity="0.996078431372549" d="M 123.5 36 L 124 59.5 L 123 59.5 L 123.5 36 Z " /><path fill="rgb(235,21,77)" stroke="rgb(235,21,77)" stroke-width="1" opacity="0.996078431372549" d="M 138.5 36 L 140.5 39 L 138.5 36 Z " /><path fill="rgb(235,21,77)" stroke="rgb(235,21,77)" stroke-width="1" opacity="0.996078431372549" d="M 23.5 37 L 22.5 39 L 23.5 37 Z " /><path fill="rgb(235,21,77)" stroke="rgb(235,21,77)" stroke-width="1" opacity="0.996078431372549" d="M 85.5 37 L 86.5 39 L 84 38.5 L 85.5 37 Z " /><path fill="rgb(235,21,77)" stroke="rgb(235,21,77)" stroke-width="1" opacity="0.996078431372549" d="M 11.5 40 L 17 40.5 L 11.5 41 L 11.5 40 Z " /><path fill="rgb(235,21,77)" stroke="rgb(235,21,77)" stroke-width="1" opacity="0.996078431372549" d="M 23.5 40 L 22.5 42 L 23.5 40 Z " /><path fill="rgb(235,21,77)" stroke="rgb(235,21,77)" stroke-width="1" opacity="0.996078431372549" d="M 82.5 41 L 85 41.5 L 83.5 43 L 81 42.5 L 82.5 41 Z " /><path fill="rgb(235,21,77)" stroke="rgb(235,21,77)" stroke-width="1" opacity="0.996078431372549" d="M 42.5 42 L 43 51.5 L 42 51.5 L 42.5 42 Z " /><path fill="rgb(235,21,77)" stroke="rgb(235,21,77)" stroke-width="1" opacity="0.996078431372549" d="M 112.5 43 L 113 50.5 L 112 50.5 L 112.5 43 Z " /><path fill="rgb(235,21,77)" stroke="rgb(235,21,77)" stroke-width="1" opacity="0.996078431372549" d="M 118.5 43 L 119 45.5 L 118 45.5 L 118.5 43 Z " /><path fill="rgb(235,21,77)" stroke="rgb(235,21,77)" stroke-width="1" opacity="0.996078431372549" d="M 72.5 45 L 73.5 47 L 72.5 45 Z " /><path fill="rgb(235,21,77)" stroke="rgb(235,21,77)" stroke-width="1" opacity="0.996078431372549" d="M 75.5 49 L 76.5 51 L 75.5 49 Z " /><path fill="rgb(235,21,77)" stroke="rgb(235,21,77)" stroke-width="1" opacity="0.996078431372549" d="M 83.5 50 L 84.5 52 L 83.5 50 Z " /><path fill="rgb(235,21,77)" stroke="rgb(235,21,77)" stroke-width="1" opacity="0.996078431372549" d="M 71.5 51 L 74 51.5 L 72.5 53 L 70 52.5 L 71.5 51 Z " /><path fill="rgb(235,21,77)" stroke="rgb(235,21,77)" stroke-width="1" opacity="0.996078431372549" d="M 86.5 54 L 87.5 56 L 86.5 54 Z " /><path fill="rgb(235,21,77)" stroke="rgb(235,21,77)" stroke-width="1" opacity="0.996078431372549" d="M 68.5 55 L 71 55.5 L 69.5 57 L 67 56.5 L 68.5 55 Z " /><path fill="rgb(235,21,77)" stroke="rgb(235,21,77)" stroke-width="1" opacity="0.996078431372549" d="M 60.5 56 L 57.5 60 L 60.5 56 Z " /><path fill="rgb(235,21,77)" stroke="rgb(235,21,77)" stroke-width="1" opacity="0.996078431372549" d="M 39.5 57 L 40.5 59 L 39.5 57 Z " /><path fill="rgb(235,21,77)" stroke="rgb(235,21,77)" stroke-width="1" opacity="0.996078431372549" d="M 44.5 57 L 46.5 60 L 44.5 57 Z " /><path fill="rgb(235,21,77)" stroke="rgb(235,21,77)" stroke-width="1" opacity="0.996078431372549" d="M 110.5 57 L 108.5 60 L 110.5 57 Z " /><path fill="rgb(235,21,77)" stroke="rgb(235,21,77)" stroke-width="1" opacity="0.996078431372549" d="M 115.5 57 L 114.5 59 L 115.5 57 Z " /><path fill="rgb(235,21,77)" stroke="rgb(235,21,77)" stroke-width="1" opacity="0.996078431372549" d="M 89.5 58 L 90.5 60 L 89.5 58 Z " /><path fill="rgb(235,21,77)" stroke="rgb(235,21,77)" stroke-width="1" opacity="0.996078431372549" d="M 96.5 58 L 97.5 60 L 96.5 58 Z " /><path fill="rgb(235,21,77)" stroke="rgb(235,21,77)" stroke-width="1" opacity="0.996078431372549" d="M 11.5 59 L 19 59.5 L 11.5 60 L 11.5 59 Z " /><path fill="rgb(235,21,77)" stroke="rgb(235,21,77)" stroke-width="1" opacity="0.996078431372549" d="M 11.5 61 L 14 61.5 L 11.5 62 L 11.5 61 Z " /><path fill="rgb(121,117,109)" stroke="rgb(121,117,109)" stroke-width="1" opacity="0.6235294117647059" d="M 205 33 L 208 33.5 L 208 43.5 L 208.5 45 L 184.5 45 L 184 41 L 186 40.5 L 181.5 38 L 181 43.5 L 181.5 45 L 176.5 44 Q 174.8 46.8 168.5 45 L 168.5 44 L 170 43.5 L 170 35 L 168 34.5 L 175.5 34 L 177 37.5 L 177 39.5 L 177.5 44 Q 179.8 43.3 179 39.5 L 178 36 L 185.5 37 L 189.5 36 L 191 37.5 L 191 44 Q 195 45.4 193 38.5 L 192 36 L 198.5 36 L 200 37.5 L 200.5 44 L 201 37 L 206 35.5 L 205 33 Z M 172 35 Q 171 39 174 38 Q 175 34 172 35 Z M 197 38 Q 194 39 195 44 L 198 43 L 197 38 Z M 205 38 L 203 40 Q 202 45 206 43 L 206 38 L 205 38 Z M 172 40 L 172 44 L 174 44 L 175 42 L 172 40 Z " /><path fill="rgb(121,117,109)" stroke="rgb(121,117,109)" stroke-width="1" opacity="0.6235294117647059" d="M 179 49 Q 182.3 47.9 181 52 Q 177.7 53.1 179 49 Z " /><path fill="rgb(121,117,109)" stroke="rgb(121,117,109)" stroke-width="1" opacity="0.6235294117647059" d="M 190.5 49 Q 193.5 48.2 192 52 Q 188.2 53.5 189 50.5 L 190.5 49 Z " /><path fill="rgb(121,117,109)" stroke="rgb(121,117,109)" stroke-width="1" opacity="0.6235294117647059" d="M 225 49 L 228 50.5 L 225 52 L 225 49 Z " /><path fill="rgb(121,117,109)" stroke="rgb(121,117,109)" stroke-width="1" opacity="0.6235294117647059" d="M 168 50 Q 174 47.8 172 54.5 L 173.5 57 L 175 52.5 L 174 50 L 178 50 L 178 51.5 L 173.5 62 Q 171.3 62.8 172 60.5 L 168 50 Z " /><path fill="rgb(121,117,109)" stroke="rgb(121,117,109)" stroke-width="1" opacity="0.6235294117647059" d="M 178 53 L 181 53 L 181 59.5 L 182 59.5 L 183 57.5 L 182 54.5 Q 183.4 51.8 188 53 L 187 56.5 L 189 57 L 189.5 60 L 190 55.5 L 189 53 L 192 53 L 192 59.5 L 193 59.5 Q 191.8 54.3 194.5 53 Q 199.3 51.8 200.5 54 Q 202 51.5 207.5 53 Q 210.4 54.6 209.5 60 L 211.5 57 Q 215.3 58.3 214 54.5 L 213 54.5 Q 213.7 57.5 210 56 L 211.5 53 Q 216 52 217 54.5 Q 215 61.4 219 60 L 218 53 L 227 53 L 227 59.5 L 228 59.5 Q 226.8 54.3 229.5 53 Q 237.3 50.6 235 57 L 230 57.5 L 231 60 L 234.5 59 L 235 60.5 Q 234.3 62.8 230.5 62 L 228.5 62 Q 223.1 63.9 224 60.5 L 225 55.5 L 223.5 56 L 221.5 55 L 221 59.5 L 222 62 L 206.5 62 L 206 60.5 L 207 55 Q 202.1 53.2 204 59.5 L 205 62 L 201 62 L 201 60.5 L 198.5 62 L 193.5 61 L 189.5 62 L 187.5 62 L 178.5 62 L 178 60.5 L 179 55.5 L 178 53 Z M 186 54 Q 184 57 187 56 L 186 54 Z M 196 54 L 195 59 L 198 60 L 198 54 L 196 54 Z M 232 54 Q 230 57 233 56 L 232 54 Z M 202 55 L 201 60 L 202 60 L 202 55 Z M 185 58 Q 183 61 186 60 L 185 58 Z M 214 58 L 212 60 L 214 60 L 214 58 Z " /><path fill="rgb(121,117,109)" stroke="rgb(121,117,109)" stroke-width="1" opacity="0.6235294117647059" d="M 236 53 L 241 53 L 241 55.5 L 240.5 57 Q 243.5 56.1 242 60.5 Q 240.6 63.3 236 62 L 236 53 Z M 239 54 Q 237 57 240 56 L 239 54 Z " /><path fill="rgb(235,21,77)" stroke="rgb(235,21,77)" stroke-width="1" opacity="1" d="M 77 2 L 80 3.5 L 86 11.5 L 80 20.5 L 90 33.5 L 81 45.5 L 81 47.5 L 90.5 60 L 94 60.5 L 82.5 61 L 83 59.5 L 75.5 49 L 69 56.5 L 68 60 L 71 60.5 L 63.5 61 L 63.5 60 Q 66.8 61.1 66 58.5 Q 71.8 54.3 74 46.5 L 64 34.5 L 75 19.5 L 70 12.5 L 77 2 Z M 78 5 L 73 11 L 75 15 L 80 18 L 83 14 L 78 5 Z M 76 22 L 69 31 L 80 45 L 87 36 L 78 24 L 76 22 Z " /><path fill="rgb(235,21,77)" stroke="rgb(235,21,77)" stroke-width="1" opacity="1" d="M 3.5 24 L 23.5 24 L 30 28.5 L 31 33.5 L 27.5 39 L 22 41.5 Q 28.2 41.8 31 45.5 L 33 51.5 L 28.5 59 L 22.5 61 L 2.5 61 L 2.5 60 L 5 59.5 L 5 25 L 3.5 24 Z M 11 25 L 11 41 Q 18 42 23 39 L 25 36 L 24 29 Q 20 23 11 25 Z M 11 42 L 11 60 L 23 59 L 26 56 L 27 52 L 26 47 Q 22 40 11 42 Z " /><path fill="rgb(235,21,77)" stroke="rgb(235,21,77)" stroke-width="1" opacity="1" d="M 44.5 33 L 54.5 33 L 62 39.5 L 63 51.5 Q 61.6 57.6 56.5 60 L 49.5 62 L 42.5 60 L 38 55.5 L 36 49.5 L 36 44.5 Q 37.1 37.1 42.5 34 L 44.5 33 Z M 47 34 L 44 37 L 42 43 Q 41 52 44 58 Q 46 62 53 60 L 57 54 Q 59 43 56 38 Q 54 33 47 34 Z " /><path fill="rgb(235,21,77)" stroke="rgb(235,21,77)" stroke-width="1" opacity="1" d="M 100.5 33 Q 113.8 30.7 117 38.5 L 119 48.5 L 117 55.5 L 112.5 60 L 104.5 62 L 95 58 Q 90.7 53.6 92 42.5 Q 93.4 36.4 98.5 34 L 100.5 33 Z M 103 34 L 98 41 Q 96 51 99 57 Q 101 62 109 60 L 112 56 L 113 51 L 113 44 L 111 37 Q 109 33 103 34 Z " /><path fill="rgb(235,21,77)" stroke="rgb(235,21,77)" stroke-width="1" opacity="1" d="M 125.5 33 L 129 33 Q 127.5 36.7 130.5 36 Q 133 31.5 141.5 33 L 147 40.5 L 147 60 L 150 60.5 L 138.5 61 L 138.5 60 L 141 59.5 L 141 38.5 Q 139.3 34.3 131.5 36 L 129 38.5 L 129 60 L 132 60.5 L 120.5 61 L 120.5 60 L 124 59.5 L 124 36 Q 119.9 37.3 121 34 L 125.5 33 Z " /></svg>